<svg xmlns="http://www.w3.org/2000/svg" id="Layer_2" viewBox="0 0 300 300"><defs><style>.cls-1{fill:none;stroke-width:0}</style></defs><g id="logo"><circle id="background" cx="150" cy="150" r="150" style="stroke-width:0;fill:#fff"/><g id="vectors"><path d="M198.76 82.55c.62-.22 1.22-.48 1.8-.77 1.55-.76 2.98-1.71 4.21-2.88 3.26-3.08 5.32-7.38 5.32-12.17s-2.05-9.08-5.3-12.16l-18 17.71-1.46 1.44-3.22 3.17-1.21 1.2-.32.32c3.07 3.14 7.34 5.12 12.1 5.19.09 0 .17.03.26.03 2.06 0 4.01-.42 5.84-1.07ZM150.37 92.16l60.92-59.93c1.65-1.62.48-4.39-1.85-4.39-17.32 0-33.94 16.09-46.19 28.14l-13.26 13.04-13.26-13.04c-12.25-12.05-28.86-28.14-46.19-28.14-2.33 0-3.49 2.77-1.85 4.39 0 0 61.46 60.13 61.66 59.93ZM114.68 73.73l-1.46-1.44-18-17.71c-3.25 3.08-5.3 7.38-5.3 12.16s2.05 9.09 5.32 12.17c1.24 1.17 2.67 2.12 4.21 2.88.58.29 1.18.55 1.8.77 1.83.66 3.78 1.07 5.84 1.07.09 0 .17-.02.26-.03 4.75-.07 9.03-2.05 12.1-5.19l-.32-.32-1.21-1.2-3.22-3.17Z" class="cls-1"/><path d="M76.05 95.3c1 1.49 2.13 2.89 3.34 4.22.09.1.18.19.26.28 1.2 1.29 2.46 2.52 3.84 3.64 1.48 1.2 3.08 2.26 4.74 3.22 5.54 3.22 11.97 5.1 18.85 5.1 3.78 0 7.42-.57 10.86-1.6a37.2 37.2 0 0 0 11.59-5.89c2.8-2.09 5.29-4.55 7.39-7.33.34-.44.28-1.08-.12-1.47l-8.48-8.34c-.44-.44-1.14-.43-1.6 0a28.68 28.68 0 0 1-19.64 7.74c-1.95 0-3.86-.2-5.71-.57-2.29-.46-4.43-1.26-6.48-2.22-.17-.08-.32-.18-.49-.26a28.7 28.7 0 0 1-4.54-2.77c-.58-.43-1.09-.92-1.69-1.34-.03-.03-.06-.05-.1-.08-5.77-5.23-9.6-12.59-9.6-20.91 0-7.49 3-14.28 7.87-19.32.43-.44.43-1.14 0-1.57l-8.86-8.72c-1.52-1.5-3.89-1.69-5.65-.48-.02.01-.03.02-.05.03a4.41 4.41 0 0 0-1.89 3.63v34.86c0 5.39 1.22 10.49 3.35 15.09.81 1.75 1.74 3.44 2.81 5.03ZM211.93 87.64s-.06.05-.1.08c-.59.42-1.11.91-1.69 1.34a28.3 28.3 0 0 1-4.57 2.78c-.16.08-.31.18-.47.25-2.05.96-4.2 1.76-6.48 2.22-1.84.37-3.75.57-5.71.57-7.61 0-14.51-2.96-19.64-7.74-.46-.42-1.16-.43-1.6 0l-8.48 8.34c-.4.39-.45 1.02-.12 1.47 2.1 2.77 4.59 5.23 7.39 7.33 3.45 2.58 7.35 4.61 11.59 5.88 3.44 1.04 7.09 1.6 10.86 1.6 6.88 0 13.31-1.88 18.85-5.1 1.66-.97 3.26-2.02 4.74-3.22 1.37-1.11 2.63-2.33 3.82-3.62.09-.1.19-.2.28-.3 1.21-1.33 2.34-2.73 3.34-4.22 1.07-1.59 2-3.28 2.81-5.03 2.13-4.61 3.35-9.71 3.35-15.1V40.3c0-1.45-.7-2.81-1.89-3.63-.02-.01-.03-.02-.05-.03-1.76-1.21-4.13-1.02-5.65.48l-8.86 8.72c-.44.43-.43 1.13 0 1.57 4.86 5.05 7.87 11.84 7.87 19.32 0 8.32-3.84 15.68-9.6 20.91ZM17.31 153.17a5.545 5.545 0 0 0 0 7.27c9.39 10.83 29.57 32.19 56.02 49.39 1.03.67 2.3-.58 1.59-1.58-10.38-14.59-16.49-32.32-16.49-51.44 0-16.32 4.51-31.59 12.27-44.81 1.53-2.6-1.63-5.43-4.11-3.69-23.14 16.27-40.71 34.95-49.28 44.85ZM175.91 230.56c.31.35.81.47 1.25.32a80.2 80.2 0 0 0 25.23-14.57c1.44-1.23 2.89-2.46 4.24-3.79s2.6-2.75 3.85-4.17c12.2-13.83 19.64-31.83 19.64-51.53 0-14.98-4.32-28.96-11.72-40.9-.02 0-.03 0-.05-.01a49.7 49.7 0 0 1-8.44 4.07 48.8 48.8 0 0 1-11.02 2.67c-1.08.13-2.18.2-3.28.26.41.54.84 1.07 1.23 1.62 1.12 1.57 2.16 3.18 3.12 4.86a55 55 0 0 1 2.63 5.22 55.3 55.3 0 0 1 4.64 22.21c0 13.52-4.85 25.92-12.92 35.62a56 56 0 0 1-3.84 4.19 57 57 0 0 1-4.26 3.77c-7.06 5.68-15.53 9.71-24.8 11.56-.38.08-.6.47-.4.79 1.93 3 12.46 15.03 14.9 17.81" class="cls-1"/><path d="M229.32 112.06c7.74 13.2 12.24 28.45 12.24 44.75 0 19.12-6.12 36.85-16.49 51.44-.71 1 .56 2.25 1.59 1.58 26.44-17.19 46.62-38.54 56.01-49.38a5.52 5.52 0 0 0 0-7.27c-8.57-9.89-26.14-28.54-49.24-44.8-2.48-1.74-5.64 1.09-4.11 3.68M243.52 73.82c3.35-4.13 6.62-8.25 9.79-12.33.6-.78.57-1.87-.08-2.61-2.62-2.96-5.37-5.81-8.23-8.54-1.3-1.24-3.45-.31-3.45 1.48 0 8.43-.02 16.87-.03 21.29 0 1.06 1.34 1.53 2 .7ZM100.05 129.38c.95-1.68 2-3.3 3.12-4.86.39-.55.82-1.08 1.23-1.62-1.1-.06-2.2-.13-3.28-.26-3.84-.46-7.52-1.38-11.03-2.67a49 49 0 0 1-8.44-4.06c-.02 0-.03 0-.05.01-7.4 11.94-11.72 25.92-11.72 40.9 0 19.71 7.44 37.7 19.64 51.53 1.25 1.42 2.5 2.84 3.85 4.17s2.8 2.56 4.24 3.79a80.5 80.5 0 0 0 25.23 14.57c.45.16.94.04 1.25-.32 2.44-2.78 12.97-14.81 14.9-17.81.21-.32-.02-.72-.4-.79-9.28-1.85-17.75-5.88-24.81-11.56a57 57 0 0 1-4.26-3.78 58 58 0 0 1-3.84-4.18c-8.07-9.7-12.93-22.1-12.93-35.62 0-7.89 1.66-15.4 4.64-22.21a55 55 0 0 1 2.63-5.22ZM150 134.57c3.23-5.37 7.72-9.88 13.01-13.3.53-.34 1.03-.74 1.58-1.06-6.01-3.5-11.04-8.45-14.59-14.35a41.1 41.1 0 0 1-14.59 14.35c.55.32 1.05.71 1.58 1.06 5.29 3.41 9.78 7.93 13.01 13.3M263.17 71.56c-.78-1.12-2.43-1.16-3.27-.08a728 728 0 0 1-14.98 18.54c-1.55 1.85-3.08 3.65-4.59 5.42-1.08 1.26-.87 3.06.49 4.02 14.83 10.47 31.9 27.24 42.75 38.46 1.34 1.38 3.69.32 3.5-1.6-2.37-23.89-10.87-46.01-23.9-64.75ZM162.32 233.19c-.44-.43-1.15.04-.93.61l19.04 47.85c.57 1.42 2.1 2.22 3.58 1.85 6-1.53 11.84-3.46 17.49-5.74 2.04-.83 2.57-3.48 1-5.03l-40.19-39.53ZM218.7 232.36c-1.75-1.72-4.4-2.11-6.62-1.02-6.69 3.29-13.66 6.21-20.87 8.6-2.02.67-2.65 3.15-1.14 4.63l25.22 24.91c.68.67 1.73.78 2.53.27 3.77-2.4 14.43-9.29 20.89-14.5.95-.77 1.03-2.19.16-3.05zM150.53 237.42c-.19-.48-.88-.48-1.07 0l-18 45.22c-.75 1.87.49 3.95 2.49 4.18 5.26.61 10.61.94 16.03.94s10.77-.32 16.03-.94c2-.23 3.24-2.31 2.49-4.18l-17.99-45.22ZM281.28 177.41c-13.52 11.35-44.85 38.35-53.28 44.95-.97.76-1.04 2.19-.17 3.06l19.41 19.09c.81.8 2.13.79 2.91-.04 16.86-17.87 29.01-40.23 34.43-65.08.41-1.89-1.83-3.23-3.31-1.98ZM56.48 73.82c.67.82 2.01.36 2.01-.7 0-4.42-.02-12.85-.03-21.29 0-1.79-2.16-2.72-3.45-1.48-3.07 2.92-6 5.99-8.79 9.18-.32.37-.34.92-.04 1.31 3.33 4.29 6.77 8.64 10.3 12.99ZM71.82 222.37c-7.84-5.49-31.49-23.52-34.89-25.84a298 298 0 0 1-17.58-16.86c-1.44-1.5-3.94-.14-3.46 1.89 5.64 23.98 17.58 45.57 33.95 62.91.78.83 2.1.84 2.91.04l19.33-19.01c.91-.9.78-2.4-.26-3.13M137.68 233.19 97.5 272.72c-1.57 1.55-1.05 4.2 1 5.03 5.66 2.29 11.5 4.22 17.49 5.74 1.48.38 3.02-.42 3.58-1.85l19.05-47.86c.23-.57-.5-1.03-.94-.6ZM59.1 99.49c1.38-.95 1.65-2.81.56-4.06-1.55-1.77-3.12-3.57-4.7-5.41a755 755 0 0 1-15.09-18.24c-.85-1.06-2.49-1.02-3.26.1-12.61 18.24-20.93 39.66-23.5 62.79-.21 1.91 2.11 3.02 3.47 1.67 11.23-11.15 28.07-26.85 42.53-36.84ZM108.78 239.94c-7.21-2.39-14.18-5.32-20.87-8.6-2.21-1.09-4.87-.7-6.62 1.02l-18.58 18.27c-1.73 1.7-1.61 4.54.27 6.08a138 138 0 0 0 17.73 12.31c1.6.94 3.63.7 4.96-.6 9.48-9.33 19.3-18.98 24.25-23.86 1.51-1.48.87-3.96-1.15-4.63Z" class="cls-1"/><path d="M298.79 130.89a148.7 148.7 0 0 0-11.45-41.16 150.6 150.6 0 0 0-18.02-30.51c-2.36-3.09-4.83-6.08-7.41-8.98-6.18-6.93-13-13.28-20.35-18.96C216.21 11.68 184.44 0 150 0S83.79 11.68 58.44 31.27a151.6 151.6 0 0 0-28.1 28.38c-8.3 10.97-15.13 23.1-20.19 36.11-4.33 11.13-7.38 22.9-8.94 35.13C.41 137.15 0 143.52 0 150s.41 12.85 1.21 19.11c1.85 14.46 5.77 28.28 11.45 41.17a150.3 150.3 0 0 0 29.9 44.28c2.64 2.71 5.38 5.33 8.22 7.83 7.28 6.44 15.2 12.18 23.63 17.13 3.41 2 6.91 3.88 10.49 5.61 9.22 4.46 18.97 8 29.11 10.51a150 150 0 0 0 35.99 4.38c16.99 0 33.34-2.85 48.58-8.08a151 151 0 0 0 16.53-6.8c3.5-1.69 6.92-3.53 10.26-5.48.05-.02.11-.03.15-.05l-.02-.02s.06-.03.09-.05c8.44-4.94 16.35-10.69 23.63-17.13q4.26-3.765 8.22-7.83c12.02-12.35 21.95-26.76 29.17-42.64a148.9 148.9 0 0 0 12.17-42.8c.8-6.26 1.21-12.64 1.21-19.11s-.41-12.85-1.21-19.11Zm-57.25-79.07c0-1.79 2.16-2.72 3.45-1.48 2.86 2.73 5.61 5.58 8.23 8.54.65.74.68 1.83.08 2.61-3.17 4.07-6.44 8.2-9.79 12.33-.67.82-2.01.36-2-.7 0-4.42.02-12.86.03-21.29Zm-8.1 56.55c23.11 16.25 40.67 34.91 49.24 44.8a5.52 5.52 0 0 1 0 7.27c-9.39 10.83-29.57 32.19-56.01 49.38-1.03.67-2.3-.58-1.59-1.58 10.37-14.59 16.49-32.32 16.49-51.44 0-16.3-4.5-31.55-12.24-44.75-1.52-2.6 1.63-5.43 4.11-3.68M105.7 192.43c1.21 1.46 2.49 2.86 3.84 4.18 1.35 1.33 2.78 2.58 4.26 3.78 7.06 5.68 15.53 9.71 24.81 11.56.38.08.6.47.4.79-1.93 3-12.46 15.03-14.9 17.81-.31.35-.81.47-1.25.32a80.2 80.2 0 0 1-25.23-14.57c-1.44-1.23-2.89-2.46-4.24-3.79s-2.6-2.75-3.85-4.17c-12.2-13.83-19.64-31.83-19.64-51.53 0-14.98 4.32-28.96 11.72-40.9.02 0 .03 0 .05-.01 2.66 1.61 5.48 2.97 8.44 4.06 3.51 1.29 7.19 2.21 11.03 2.67 1.08.13 2.18.2 3.28.26-.41.54-.84 1.07-1.23 1.62a57 57 0 0 0-3.12 4.86 55 55 0 0 0-2.63 5.22 55.3 55.3 0 0 0-4.64 22.21c0 13.52 4.85 25.92 12.93 35.62Zm31.29-71.16c-.53-.34-1.03-.74-1.58-1.06 6.01-3.5 11.04-8.45 14.59-14.35a41.1 41.1 0 0 0 14.59 14.35c-.55.32-1.05.71-1.58 1.06-5.29 3.41-9.78 7.93-13.01 13.3-3.23-5.37-7.72-9.88-13.01-13.3m24.41 90.68c9.28-1.85 17.75-5.88 24.8-11.56 1.48-1.19 2.9-2.45 4.26-3.77 1.35-1.33 2.63-2.73 3.84-4.19 8.07-9.7 12.92-22.1 12.92-35.62a55.3 55.3 0 0 0-4.64-22.21 55 55 0 0 0-2.63-5.22c-.95-1.68-2-3.29-3.12-4.86-.39-.55-.82-1.08-1.23-1.62 1.1-.06 2.2-.13 3.28-.26 3.83-.46 7.52-1.38 11.02-2.67 2.96-1.09 5.78-2.45 8.44-4.07.02 0 .03 0 .05.01 7.4 11.94 11.72 25.92 11.72 40.9 0 19.71-7.44 37.7-19.64 51.53-1.25 1.42-2.5 2.84-3.85 4.17s-2.8 2.56-4.24 3.79a80.5 80.5 0 0 1-25.23 14.57c-.44.16-.94.04-1.25-.32-2.44-2.78-12.97-14.81-14.9-17.81-.21-.32.02-.72.4-.79m52.26-164.54c-.43-.44-.43-1.14 0-1.57l8.86-8.72c1.52-1.5 3.89-1.69 5.65-.48.02.01.03.02.05.03 1.19.82 1.89 2.19 1.89 3.63v34.87c0 5.39-1.22 10.49-3.35 15.1-.81 1.75-1.74 3.44-2.81 5.03-1 1.49-2.13 2.89-3.34 4.22-.09.1-.19.2-.28.3-1.2 1.29-2.45 2.51-3.82 3.62-1.48 1.2-3.08 2.26-4.74 3.22-5.54 3.22-11.97 5.1-18.85 5.1-3.78 0-7.43-.57-10.86-1.6-4.24-1.28-8.14-3.3-11.59-5.88-2.8-2.09-5.29-4.56-7.39-7.33-.34-.44-.28-1.08.12-1.47l8.48-8.34c.44-.44 1.14-.43 1.6 0a28.68 28.68 0 0 0 19.64 7.74c1.95 0 3.86-.2 5.71-.57 2.29-.46 4.43-1.26 6.48-2.22.16-.08.31-.17.47-.25 1.62-.79 3.14-1.72 4.57-2.78.58-.43 1.09-.93 1.69-1.34.03-.03.06-.05.1-.08 5.77-5.23 9.6-12.59 9.6-20.91 0-7.49-3-14.28-7.87-19.32Zm-33.1 31 .32-.32 1.21-1.2 3.22-3.17 1.46-1.44 18-17.71c3.26 3.08 5.3 7.38 5.3 12.16s-2.05 9.09-5.32 12.17c-1.24 1.17-2.67 2.11-4.21 2.88-.59.29-1.18.55-1.8.77-1.83.66-3.78 1.07-5.84 1.07-.09 0-.17-.02-.26-.03-4.75-.07-9.03-2.05-12.1-5.19ZM150 22.18c5.52 0 10 4.48 10 10s-4.48 10-10 10-10-4.48-10-10 4.48-10 10-10m-59.45 5.66c17.32 0 33.94 16.09 46.19 28.14L150 69.02l13.26-13.04c12.25-12.05 28.86-28.14 46.19-28.14 2.33 0 3.49 2.77 1.85 4.39l-60.92 59.93c-.2.2-61.66-59.93-61.66-59.93-1.65-1.62-.48-4.39 1.85-4.39Zm28.89 50.57a17.22 17.22 0 0 1-12.1 5.19c-.09 0-.17.03-.26.03-2.06 0-4.01-.42-5.84-1.07-.62-.22-1.21-.48-1.8-.77-1.55-.76-2.98-1.71-4.21-2.88-3.26-3.08-5.32-7.38-5.32-12.17s2.05-9.08 5.3-12.16l18 17.71 1.46 1.44 3.22 3.17 1.21 1.2.32.32ZM69.88 40.32c0-1.45.7-2.81 1.89-3.63.02-.01.03-.02.05-.03 1.76-1.21 4.13-1.02 5.65.48l8.86 8.72c.44.43.43 1.13 0 1.57-4.86 5.05-7.87 11.84-7.87 19.32 0 8.32 3.84 15.68 9.6 20.91.03.03.07.05.1.08.59.42 1.11.91 1.69 1.34a28.7 28.7 0 0 0 4.54 2.77c.17.08.32.18.49.26 2.05.96 4.2 1.76 6.48 2.22 1.84.37 3.75.57 5.71.57 7.61 0 14.51-2.96 19.64-7.74.46-.42 1.16-.43 1.6 0l8.48 8.34c.4.39.45 1.02.12 1.47-2.1 2.77-4.59 5.23-7.39 7.33-3.45 2.58-7.35 4.61-11.59 5.89-3.44 1.03-7.08 1.6-10.86 1.6-6.88 0-13.31-1.88-18.85-5.1-1.66-.97-3.26-2.02-4.74-3.22-1.37-1.11-2.64-2.34-3.84-3.64a36.625 36.625 0 0 1-3.6-4.5c-1.07-1.59-2-3.28-2.81-5.03-2.13-4.61-3.35-9.71-3.35-15.09V40.35Zm.83 71.69c-7.76 13.21-12.27 28.48-12.27 44.81 0 19.12 6.12 36.85 16.49 51.44.71 1-.56 2.25-1.59 1.58-26.45-17.19-46.63-38.55-56.02-49.39a5.52 5.52 0 0 1 0-7.27c8.57-9.9 26.14-28.59 49.28-44.85 2.48-1.74 5.64 1.09 4.11 3.69ZM46.22 59.52c2.79-3.19 5.72-6.26 8.79-9.18 1.3-1.24 3.45-.31 3.45 1.48 0 8.43.02 16.86.03 21.29 0 1.06-1.34 1.53-2.01.7-3.53-4.35-6.97-8.7-10.3-12.99-.3-.39-.28-.94.04-1.31Zm-33.11 75.15c2.57-23.13 10.89-44.55 23.5-62.79.77-1.12 2.41-1.16 3.26-.1 4.78 5.97 9.84 12.11 15.09 18.24 1.58 1.85 3.15 3.65 4.7 5.41 1.1 1.25.82 3.11-.56 4.06-14.45 9.99-31.29 25.69-42.53 36.84-1.36 1.35-3.68.24-3.47-1.67Zm36.74 109.8c-16.37-17.35-28.31-38.93-33.95-62.91-.48-2.02 2.02-3.39 3.46-1.89 4.93 5.13 10.83 10.9 17.58 16.86 3.4 2.33 27.05 20.35 34.89 25.84a2.04 2.04 0 0 1 .26 3.13l-19.33 19.01c-.81.8-2.13.79-2.91-.04m30.87 24.55a137 137 0 0 1-17.73-12.31c-1.88-1.54-2-4.37-.27-6.08l18.58-18.27c1.75-1.72 4.4-2.11 6.62-1.02 6.69 3.29 13.66 6.21 20.87 8.6 2.02.67 2.66 3.14 1.15 4.63-4.95 4.87-14.77 14.53-24.25 23.86-1.32 1.3-3.35 1.53-4.96.6Zm35.26 14.48c-6-1.53-11.84-3.46-17.49-5.74-2.04-.83-2.57-3.48-1-5.03l40.18-39.53c.44-.43 1.16.04.94.6l-19.05 47.86c-.57 1.42-2.1 2.22-3.58 1.85Zm50.05 3.31c-5.26.61-10.61.94-16.03.94s-10.77-.32-16.03-.94c-2-.23-3.24-2.31-2.49-4.18l18-45.22c.19-.48.88-.48 1.07 0l17.99 45.22c.75 1.87-.49 3.95-2.49 4.18Zm35.48-9.06c-5.66 2.29-11.5 4.22-17.49 5.74-1.48.38-3.02-.42-3.58-1.85l-19.04-47.85c-.23-.57.49-1.05.93-.61l40.19 39.53c1.57 1.55 1.05 4.2-1 5.03Zm37.21-22.5c-6.46 5.21-17.12 12.1-20.89 14.5-.8.51-1.85.4-2.53-.27l-25.22-24.91c-1.51-1.48-.87-3.96 1.14-4.63 7.21-2.39 14.18-5.32 20.87-8.6 2.21-1.09 4.87-.7 6.62 1.02l20.17 19.84c.87.86.8 2.28-.16 3.05m45.87-75.86c-5.42 24.85-17.57 47.21-34.43 65.08-.78.83-2.1.84-2.91.04l-19.41-19.09c-.88-.86-.8-2.3.17-3.06 8.43-6.61 39.76-33.61 53.28-44.95 1.48-1.25 3.73.09 3.31 1.98Zm-1.03-41.48c-10.85-11.22-27.93-27.99-42.75-38.46-1.35-.96-1.57-2.76-.49-4.02 1.52-1.77 3.05-3.57 4.59-5.42a728 728 0 0 0 14.98-18.54c.84-1.08 2.49-1.04 3.27.08 13.03 18.74 21.53 40.86 23.9 64.75.19 1.92-2.16 2.98-3.5 1.6Z" style="stroke-width:0"/></g></g></svg>